<svg viewBox="0 0 20 20" fill="none" xmlns="http://www.w3.org/2000/svg"><g clip-path="url(#a)"><rect width="20" height="20" rx="10" fill="#022276"/><path fill="#fff" d="M9.12 11.752-2.036 2.698-.406.126 10.75 9.179z"/><path fill="#fff" d="M20.405 19.873 9.249 10.82l1.63-2.573L22.037 17.3z"/><path fill="#fff" d="M9.12 8.247-2.036 17.3l1.63 2.572L10.75 10.82z"/><path fill="#fff" d="M20.405.126 9.249 9.18l1.63 2.573L22.037 2.7z"/><path fill="#BD0019" d="M9.38 11.34-1.776 2.287l.569-.897 11.156 9.053zM21.235 18.564 10.08 9.511l.528-.832 11.156 9.053z"/><path fill="#BD0019" d="M9.91 9.497-1.246 18.55l.563.887 11.156-9.053z"/><path fill="#BD0019" d="M20.72.62 9.562 9.675l.565.89 11.156-9.052z"/><path fill-rule="evenodd" clip-rule="evenodd" d="M12.277 7.451V-.9H7.724v8.352H-2.42v5.075H7.724v8.357h4.553v-8.357H22.42V7.45H12.277Z" fill="#fff"/><path fill-rule="evenodd" clip-rule="evenodd" d="M11.32 8.672V-.145H8.683v8.817h-10.24v2.635h10.24v8.818h2.635v-8.818h10.24V8.672H11.32Z" fill="#BD0019"/></g><defs><clipPath id="a"><rect width="20" height="20" rx="10" fill="#fff"/></clipPath></defs></svg>