<svg height="25" viewBox="0 0 34 25" width="34" xmlns="http://www.w3.org/2000/svg"><path d="m21.2165835 7.5939564c-.9932024.59098803-1.0027648.57548913-1.0053393-.6330565-.0009195-.38876422-.0001839-.77771295-.0001839-1.16647716 0-1.49066261.0034939-2.98114071-.0012873-4.47180332-.0034939-1.14249077-.1662386-1.30799694-1.2670181-1.31999014-.3229149-.00350571-.6458299-.00350571-.9687448 0-1.0518641.01162418-1.1151231.06531682-1.1176975 1.08935166-.0060685 2.23590166-.001839 4.47180332-.001839 6.70770498-.0025745 2.23571718-.0027584 4.47180328-.0025745 6.70752048.0001839.3865501-.0636267.8026219.2911016 1.0797571.7135022.5575916 1.4571628 1.0777275 2.2583817 1.4974895.4361926.2287934.7386954.0285992.7909209-.4994707.044318-.4494683.0378818-.907424.0139758-1.3596599-.0575583-1.0830783.2966183-2.0451176.8615355-2.9324299 1.9840143-3.11638712 6.235421-3.25919847 8.4139934-.3132993 1.1553955 1.5624373 1.3488502 3.3258068 1.0649205 5.1729443-.2122118 1.3803251-.9532978 2.4541779-2.0774316 3.268055-1.9119286 1.3843843-4.0336782 1.4609563-6.1907352.8600047-2.0452505-.5699538-3.8056517-1.7510073-5.5191604-2.9719152-1.2624208-.899859-2.472984-1.8725999-3.7210612-2.7933087-2.1221175-1.565943-4.49120232-2.087186-7.05208686-1.4947218-2.76095939.6387763-4.72437776 2.2962366-5.83821358 4.9242237-.32879948.7756833-.11971391 1.0793881.72582301 1.102821.70982438.0195581 1.42130379-.0125468 2.13112817.0101481.47922341.0153143.80563229-.1603399.99651252-.6037193.06362675-.1477932.15373399-.2847002.23814056-.4227142.95293004-1.5604077 2.65099178-2.2403299 4.41580644-1.7694584.78558802.2096042 1.51453724.5430152 2.20027164.9819664 1.5527869.994144 3.0377174 2.0833112 4.5110627 3.1905604 2.985308 2.2434666 6.1631513 3.8540612 10.0765639 3.5221263 2.6533824-.2249186 4.8597225-1.2094682 6.5671628-3.2484968 1.3585965-1.6222188 1.9604761-3.515853 1.9882438-5.6438158.0246416-1.8945567-.3135364-3.6699195-1.2855912-5.2974891-1.6382968-2.7433063-4.1123841-4.17750861-7.2492194-4.30832676-1.4757359-.06144209-2.9340021.35407619-4.2473611 1.13547936z" fill="#fff" fill-rule="evenodd"/></svg>