<svg width="18" height="18" viewBox="0 0 18 18" xmlns="http://www.w3.org/2000/svg"><path d="M7.72863374,0.383822017 L0.658394063,6.05514002 L0.545511227,6.15500134 C0.189282359,6.50668896 0,6.96233115 0,7.43829687 L0,16.4610025 L0.0056299189,16.5706206 C0.0796670362,17.183161 0.566599401,17.6250162 1.1517858,17.6250162 L6.5625,17.6250162 C6.87316017,17.6250162 7.125,17.3731763 7.125,17.0625162 L7.125,11.0625162 L7.12911213,11.0074464 C7.13710573,10.9468239 7.21720201,10.8750162 7.3125,10.8750162 L10.3125,10.8750162 L10.3675698,10.8791283 C10.4281922,10.8871219 10.5,10.9672182 10.5,11.0625162 L10.5,17.0625162 C10.5,17.3731763 10.7518398,17.6250162 11.0625,17.6250162 L16.4732142,17.6250162 L16.5827255,17.6192023 C17.1935672,17.5423231 17.625,17.0469403 17.625,16.4610025 L17.625,7.43829687 L17.6182673,7.28859984 C17.5691699,6.78813596 17.3361793,6.35323775 16.9677947,6.05609623 L9.89517744,0.382865768 L9.75724904,0.282472922 C9.13143188,-0.12779174 8.31448016,-0.0887258293 7.72863374,0.383822017 Z M9.1335,1.21951617 L9.21197846,1.27627681 L16.2626796,6.93270068 C16.394168,7.03876278 16.4793755,7.1978103 16.4967214,7.37215211 L16.5006905,7.4661588 L16.5,16.4610025 C16.5,16.4833009 16.486792,16.4984667 16.4758568,16.4998636 L16.4376217,16.5011434 L11.62425,16.5000162 L11.625,11.0625162 C11.625,10.3945065 11.1236979,9.83534083 10.4648631,9.7588182 L10.3448961,9.75094984 L7.3125,9.75001617 C6.64449031,9.75001617 6.08532466,10.2513183 6.00880203,10.9101531 L6.00093367,11.0301201 L6,16.5000162 L1.1517858,16.5000162 C1.1411005,16.5000162 1.12786295,16.4880041 1.1254109,16.468004 L1.12396145,16.4268369 L1.125,7.43829687 C1.125,7.2620487 1.19463723,7.09441733 1.31623522,6.97402076 L1.38531323,6.91322245 L8.43374889,1.26042643 C8.61720773,1.1124496 8.86070911,1.08533847 9.06562014,1.1814846 L9.1335,1.21951617 Z" transform="translate(.1875 .1875)" fill="#171717" fill-rule="evenodd"/></svg>