<svg width="18" height="18" viewBox="0 0 18 18" xmlns="http://www.w3.org/2000/svg"><path d="M15.7125,3.0375 C16.9107607,3.0375 17.8902457,3.97418997 17.9586805,5.15529541 L17.9625,5.2875 L17.9625,13.9125 C17.9625,15.1107607 17.02581,16.0902457 15.8447046,16.1586805 L15.7125,16.1625 L2.2875,16.1625 C1.08923934,16.1625 0.109754342,15.22581 0.0413195218,14.0447046 L0.0375000018,13.9125 L0.0375000018,5.2875 C0.0375000018,4.08923934 0.974189972,3.10975434 2.15529541,3.04131952 L2.2875,3.0375 L15.7125,3.0375 Z M15.7125,4.1625 L2.2875,4.1625 C1.70272791,4.1625 1.22216349,4.60866606 1.16764993,5.17915499 L1.1625,5.2875 L1.1625,13.9125 C1.1625,14.4972721 1.60866606,14.9778365 2.17915499,15.0323501 L2.2875,15.0375 L15.7125,15.0375 C16.2972721,15.0375 16.7778365,14.5913339 16.8323501,14.020845 L16.8375,13.9125 L16.8375,5.2875 C16.8375,4.70272791 16.3913339,4.22216349 15.820845,4.16764993 L15.7125,4.1625 Z M12.3015343,10.0214523 L12.3590592,9.98154841 C12.6858166,9.76416841 13.0781158,9.6375 13.5,9.6375 C14.6390873,9.6375 15.5625,10.5609127 15.5625,11.7 C15.5625,12.8390873 14.6390873,13.7625 13.5,13.7625 C13.0527368,13.7625 12.6387252,13.6201334 12.3008091,13.3782443 C11.7730563,13.759109 11.0828664,13.8761108 10.4413205,13.6633254 C9.59516698,13.3826766 9.02400839,12.5914816 9.02400839,11.7 C9.02400839,10.8085184 9.59516698,10.0173234 10.4413205,9.73667461 C11.0370417,9.5390882 11.6747059,9.62585901 12.1858905,9.94396166 L12.3015343,10.0214523 Z M10.7954836,10.804473 C10.4095296,10.9324847 10.1490084,11.2933706 10.1490084,11.7 C10.1490084,12.1066294 10.4095296,12.4675153 10.7954836,12.595527 C11.0700372,12.6865898 11.3641227,12.6452349 11.5984933,12.4964118 C11.4941423,12.2510047 11.4375,11.9821171 11.4375,11.7 C11.4375,11.4178829 11.4941423,11.1489953 11.5966748,10.9040892 C11.3641227,10.7547651 11.0700372,10.7134102 10.7954836,10.804473 Z M13.5,10.7625 C12.982233,10.7625 12.5625,11.182233 12.5625,11.7 C12.5625,12.217767 12.982233,12.6375 13.5,12.6375 C14.017767,12.6375 14.4375,12.217767 14.4375,11.7 C14.4375,11.182233 14.017767,10.7625 13.5,10.7625 Z M5.4,11.4375 C5.71066017,11.4375 5.9625,11.6893398 5.9625,12 C5.9625,12.2847718 5.75088459,12.5201182 5.47632792,12.557365 L5.4,12.5625 L3,12.5625 C2.68933983,12.5625 2.4375,12.3106602 2.4375,12 C2.4375,11.7152282 2.64911541,11.4798818 2.92367208,11.442635 L3,11.4375 L5.4,11.4375 Z M5.4,5.4375 C5.68477182,5.4375 5.92011822,5.64911541 5.95736504,5.92367208 L5.9625,6 L5.9625,8.4 C5.9625,8.68477182 5.75088459,8.92011822 5.47632792,8.95736504 L5.4,8.9625 L3,8.9625 C2.71522818,8.9625 2.47988178,8.75088459 2.44263496,8.47632792 L2.4375,8.4 L2.4375,6 C2.4375,5.71522818 2.64911541,5.47988178 2.92367208,5.44263496 L3,5.4375 L5.4,5.4375 Z M4.8375,6.56175 L3.56175,6.56175 L3.56175,7.8375 L4.8375,7.8375 L4.8375,6.56175 Z" fill="#171717" fill-rule="evenodd"/></svg>