<svg version="1.1" id="Warstwa_1" xmlns="http://www.w3.org/2000/svg" x="0" y="0" viewBox="0 0 56 56" xml:space="preserve" enable-background="new 0 0 56 56">
    <style>
        .st1{fill-rule:evenodd;clip-rule:evenodd;fill:#fff}
    </style>
    <g id="_x2611__xFE0F_-BOOST">
        <g id="PROMOTION---MENU" transform="translate(-452 -415)">
            <g id="Section-_x2F_-Business-Settings-_x2F_-Menu-_x2F_-Button-_x2F_-2-line-_x2B_-Status-_x2B_-Icon-" transform="translate(80 380)">
                <g id="Boost-_x2F_-Status-_x2F_-Active" transform="translate(364 27)">
                    <g id="Group-3" transform="translate(8 8)">
                        <g id="_x31_-Color-_x2F_-Solid-_x2F_-Dark-_x28_Typo_x29__1_">
                            <defs>
                                <filter id="Adobe_OpacityMaskFilter" filterUnits="userSpaceOnUse" x="0" y="0" width="56" height="56">
                                    <feColorMatrix values="1 0 0 0 0 0 1 0 0 0 0 0 1 0 0 0 0 0 1 0"/>
                                </filter>
                            </defs>
                            <mask maskUnits="userSpaceOnUse" x="0" y="0" width="56" height="56" id="mask-2_1_">
                                <g filter="url(#Adobe_OpacityMaskFilter)">
                                    <circle id="path-1_1_" class="st1" cx="28" cy="28" r="28"/>
                                </g>
                            </mask>
                            <g id="Group" mask="url(#mask-2_1_)">
                                <g id="_x31_-Color-_x2F_-Solid-_x2F_-Dark-_x28_Typo_x29_">
                                    <path id="Rectangle-7" fill-rule="evenodd" clip-rule="evenodd" fill="#5cb3fa" d="M0 0h56v56H0z"/>
                                </g>
                            </g>
                        </g>
                        <g id="Group_2_" transform="translate(16 16)">
                            <g id="Color---Gradient-_x2F_-Yellow_1_" transform="translate(1)">
                                <g id="Mask_1_">
                                    <linearGradient id="path-4_3_" gradientUnits="userSpaceOnUse" x1="-273.48" y1="416.765" x2="-273.06" y2="415.591" gradientTransform="matrix(22 0 0 -24 6023 9996.354)">
                                        <stop offset="0" stop-color="#8ad6fc"/>
                                        <stop offset="1" stop-color="#52adf8"/>
                                    </linearGradient>
                                    <path id="path-4_1_" d="M18.5 0C20.4 0 22 1.6 22 3.5S20.4 7 18.5 7c-1.3 0-2.5-.8-3.1-1.9-2.7.4-4.9 1.6-6.6 3.7.7.9 1.2 2 1.2 3.2 0 1.2-.5 2.4-1.2 3.3 1.6 2.1 3.8 3.3 6.6 3.7.6-1.2 1.8-2 3.1-2 1.9 0 3.5 1.6 3.5 3.5S20.4 24 18.5 24c-1.8 0-3.3-1.3-3.5-3.1-3.2-.5-5.9-2-7.8-4.4-.7.3-1.4.5-2.2.5-2.8 0-5-2.2-5-5s2.2-5 5-5c.8 0 1.6.2 2.3.5 1.9-2.4 4.5-3.9 7.7-4.4.2-1.7 1.7-3.1 3.5-3.1z" fill-rule="evenodd" clip-rule="evenodd" fill="url(#path-4_3_)"/>
                                </g>
                                <defs>
                                    <filter id="Adobe_OpacityMaskFilter_1_" filterUnits="userSpaceOnUse" x="-1" y="0" width="24" height="24">
                                        <feColorMatrix values="1 0 0 0 0 0 1 0 0 0 0 0 1 0 0 0 0 0 1 0"/>
                                    </filter>
                                </defs>
                                <mask maskUnits="userSpaceOnUse" x="-1" y="0" width="24" height="24" id="mask-5_1_">
                                    <g filter="url(#Adobe_OpacityMaskFilter_1_)">
                                        <path id="path-4_2_" class="st1" d="M18.5 0C20.4 0 22 1.6 22 3.5S20.4 7 18.5 7c-1.3 0-2.5-.8-3.1-1.9-2.7.4-4.9 1.6-6.6 3.7.7.9 1.2 2 1.2 3.2 0 1.2-.5 2.4-1.2 3.3 1.6 2.1 3.8 3.3 6.6 3.7.6-1.2 1.8-2 3.1-2 1.9 0 3.5 1.6 3.5 3.5S20.4 24 18.5 24c-1.8 0-3.3-1.3-3.5-3.1-3.2-.5-5.9-2-7.8-4.4-.7.3-1.4.5-2.2.5-2.8 0-5-2.2-5-5s2.2-5 5-5c.8 0 1.6.2 2.3.5 1.9-2.4 4.5-3.9 7.7-4.4.2-1.7 1.7-3.1 3.5-3.1z"/>
                                    </g>
                                </mask>
                                <g id="Group_1_" mask="url(#mask-5_1_)">
                                    <g id="Color---Gradient-_x2F_-Yellow" transform="translate(-1)">
                                        <path id="Rectangle-7_1_" class="st1" d="M0 0h24v24H0z"/>
                                    </g>
                                </g>
                            </g>
                        </g>
                    </g>
                </g>
            </g>
        </g>
    </g>
</svg>
